<svg width="118" height="21" viewBox="0 0 118 21" fill="none" xmlns="http://www.w3.org/2000/svg">
<path d="M66.9504 4.81732L54.5628 4.88893L53.2739 8.11114H54.6344C54.6344 8.11114 55.422 8.39756 55.064 9.18521L50.3381 21H54.9924L56.8541 16.5605H62.5109C62.5109 16.5605 65.2319 16.4889 66.8072 13.8395L69.3849 7.5383C69.3849 7.5383 70.1726 5.39016 66.9504 4.81732ZM64.0146 9.32842L62.7257 12.3358C62.7257 12.3358 62.4393 13.1235 61.222 13.1235L58.2146 13.0519L60.1479 8.18274H63.3701C63.3701 8.25435 64.301 8.25435 64.0146 9.32842Z" fill="#1D2777"/>
<path d="M82.8467 11.405L85.496 4.88895H75.7578C75.7578 4.88895 71.8195 5.31858 70.7455 7.82474L68.6689 12.8371C68.6689 12.8371 67.6664 16.0593 70.459 16.3457H83.0615L84.3503 13.1951C84.3503 13.1951 81.9158 13.4815 82.8467 11.405ZM77.5479 13.1951H74.1109C74.1109 13.1951 73.3948 13.1235 73.7528 11.9062C73.7528 11.9062 74.8269 8.25437 76.3306 8.11116L79.338 8.18276L77.5479 13.1951Z" fill="#1D2777"/>
<path d="M99.7454 8.25437L98.0269 6.39265C97.3109 5.7482 98.0985 5.10376 98.0985 5.10376L98.9578 4.53092L96.8096 2.16797C90.2936 5.46179 84.9948 9.04202 84.9948 9.04202C83.9924 10.2593 84.9232 11.6914 84.9232 11.6914L89.0763 15.9877C89.5059 17.1334 88.2887 17.4198 88.2887 17.4198H85.3529L83.9208 20.5704C84.7084 20.5704 89.1479 20.4988 89.1479 20.4988C93.2294 18.4222 94.3751 16.8469 94.3751 16.8469C95.0911 15.8445 94.3751 14.7704 94.3751 14.7704C93.8738 14.126 94.7331 13.8395 94.7331 13.8395C98.0985 11.9778 99.6738 10.4741 99.6738 10.4741C100.318 9.40005 99.7454 8.25437 99.7454 8.25437ZM94.8047 9.97288L91.2961 12.1926C90.7948 12.479 90.4368 12.121 90.4368 12.121L89.0047 10.5457C88.6467 10.0445 89.2195 9.40005 89.2195 9.40005L91.9405 7.68153C93.1578 7.1803 93.5874 7.68153 93.5874 7.68153L94.8047 8.82721C95.2343 9.47165 94.8047 9.97288 94.8047 9.97288Z" fill="#1D2777"/>
<path d="M117.217 8.68399C117.217 8.68399 113.708 5.17536 112.849 4.81733C112.849 4.81733 110.987 3.95808 109.126 4.81733C109.126 4.81733 103.612 7.60992 101.034 9.32843C101.034 9.32843 99.4589 10.5457 100.032 12.121C100.032 12.121 103.326 15.9161 104.328 16.4173C104.328 16.4173 105.617 17.2766 107.765 16.6321C107.765 16.6321 114.066 14.1975 117.217 11.1902C117.217 11.2618 118.148 10.1877 117.217 8.68399ZM111.99 10.9753C111.99 11.1185 108.839 12.7655 108.839 12.7655C107.837 13.2667 107.121 12.8371 107.121 12.8371C106.619 12.5506 105.617 11.3334 105.617 11.3334C105.259 10.9037 105.617 10.3309 105.617 10.3309C106.261 9.68645 108.911 8.32596 108.911 8.32596C109.555 7.89633 110.558 8.39757 110.558 8.39757L111.99 9.68645C112.563 10.4025 111.99 10.9753 111.99 10.9753Z" fill="#1D2777"/>
<path d="M52.6295 4.88895H47.9752C47.9752 4.88895 45.0394 12.121 44.753 13.0519C44.753 13.0519 44.1801 14.842 45.0394 15.4864C45.0394 15.4864 45.9702 16.4173 46.9727 16.4173H50.1949L51.5554 13.1951H50.553C50.553 13.1951 49.3357 12.9087 49.8369 11.8346L52.6295 4.88895Z" fill="#EB1A2D"/>
<path d="M50.4813 0.234634C50.4813 0.234634 52.1998 -0.338203 53.2022 0.306239C53.2022 0.306239 54.4911 1.09389 53.4887 2.38278C53.4887 2.38278 52.701 3.67166 50.5529 3.74326C50.5529 3.74326 48.7628 3.95808 48.6195 2.45438C48.5479 2.52599 48.4047 0.950681 50.4813 0.234634Z" fill="#EB1A2D"/>
<path d="M44.4665 5.60497C44.4665 5.60497 43.8221 4.88893 42.2468 4.81732H30.3604L29.1431 8.11114H30.1456C30.1456 8.11114 31.2197 8.11114 30.6468 9.68644L26.2073 20.9284H30.8616L32.5802 16.2741H38.595C38.595 16.2741 40.3135 16.4889 41.8888 14.5556C41.8888 14.5556 44.2517 10.7605 44.8962 7.89632C44.8962 8.03953 45.469 6.46423 44.4665 5.60497ZM39.5974 9.40002C39.5974 10.0445 38.3801 12.2642 38.3801 12.2642C37.8073 13.0519 36.8048 13.0519 36.8048 13.0519H33.869L35.874 8.18274H39.0246C40.0987 8.32595 39.5974 9.40002 39.5974 9.40002Z" fill="#EB1A2D"/>
<path d="M26.4222 11.2617L29 4.81732H19.6198C18.1877 4.81732 16.6124 5.53337 16.6124 5.53337C14.8222 6.39263 14.3926 7.68151 14.3926 7.68151C13.6766 8.75558 12.3161 12.6938 12.3161 12.6938C11.5284 14.6988 12.3161 15.3432 12.3161 15.3432C13.1037 16.4173 14.6074 16.4173 14.6074 16.4173H26.637L27.9259 13.2667L26.4222 12.9803C25.7778 12.6938 26.4222 11.2617 26.4222 11.2617ZM21.1235 13.0519L17.9728 13.1235C17.9728 13.1235 16.8272 13.0519 17.3284 11.5482C17.3284 11.5482 17.9012 9.54323 18.5457 8.89879C18.5457 8.89879 18.9753 8.11114 20.1926 8.11114L22.9136 8.18274L21.1235 13.0519Z" fill="#EB1A2D"/>
<path d="M14.1061 4.88893L12.7456 8.25435H9.0938C9.0938 8.25435 8.09133 8.03953 7.44689 9.47163L4.72591 16.4889L0 16.5605L4.5827 4.81732L14.1061 4.88893Z" fill="#EB1A2D"/>
</svg>
